<?xml version="1.0" standalone="no"?>
<!DOCTYPE svg PUBLIC "-//W3C//DTD SVG 1.1//EN" "http://www.w3.org/Graphics/SVG/1.1/DTD/svg11.dtd">
<svg version="1.1" width="1200" height="427" onload="init(evt)" viewBox="0 0 1200 427" xmlns="http://www.w3.org/2000/svg" xmlns:xlink="http://www.w3.org/1999/xlink">
<!-- Flame graph stack visualization. See https://github.com/brendangregg/FlameGraph for latest version, and http://www.brendangregg.com/flamegraphs.html for examples. -->
<!-- NOTES:  -->
<defs>
	<linearGradient id="background" y1="0" y2="1" x1="0" x2="0" >
		<stop stop-color="#eeeeee" offset="5%" />
		<stop stop-color="#eeeeb0" offset="95%" />
	</linearGradient>
</defs>
<style type="text/css">
	text { font-family:Verdana; font-size:13px; fill:rgb(0,0,0); }
	#search, #ignorecase { opacity:0.1; cursor:pointer; }
	#search:hover, #search.show, #ignorecase:hover, #ignorecase.show { opacity:1; }
	#subtitle { text-anchor:middle; font-color:rgb(160,160,160); }
	#title { text-anchor:middle; font-size:18px}
	#unzoom { cursor:pointer; }
	#frames > *:hover { stroke:black; stroke-width:0.5; cursor:pointer; }
	.hide { display:none; }
	.parent { opacity:0.5; }
</style>
<script type="text/ecmascript">
<![CDATA[
	"use strict";
	var details, searchbtn, unzoombtn, matchedtxt, svg, searching, currentSearchTerm, ignorecase, ignorecaseBtn;
	function init(evt) {
		details = document.getElementById("details").firstChild;
		searchbtn = document.getElementById("search");
		ignorecaseBtn = document.getElementById("ignorecase");
		unzoombtn = document.getElementById("unzoom");
		matchedtxt = document.getElementById("matched");
		svg = document.getElementsByTagName("svg")[0];
		searching = 0;
		currentSearchTerm = null;

		// use GET parameters to restore a flamegraphs state.
		var params = get_params();
		if (params.x && params.y)
			zoom(find_group(document.querySelector('[x="' + params.x + '"][y="' + params.y + '"]')));
                if (params.s) search(params.s);
	}

	// event listeners
	window.addEventListener("click", function(e) {
		var target = find_group(e.target);
		if (target) {
			if (target.nodeName == "a") {
				if (e.ctrlKey === false) return;
				e.preventDefault();
			}
			if (target.classList.contains("parent")) unzoom();
			zoom(target);
			if (!document.querySelector('.parent')) {
				clearzoom();
				return;
			}

			// set parameters for zoom state
			var el = target.querySelector("rect");
			if (el && el.attributes && el.attributes.y && el.attributes._orig_x) {
				var params = get_params()
				params.x = el.attributes._orig_x.value;
				params.y = el.attributes.y.value;
				history.replaceState(null, null, parse_params(params));
			}
		}
		else if (e.target.id == "unzoom") clearzoom();
		else if (e.target.id == "search") search_prompt();
		else if (e.target.id == "ignorecase") toggle_ignorecase();
	}, false)

	// mouse-over for info
	// show
	window.addEventListener("mouseover", function(e) {
		var target = find_group(e.target);
		if (target) details.nodeValue = "Function: " + g_to_text(target);
	}, false)

	// clear
	window.addEventListener("mouseout", function(e) {
		var target = find_group(e.target);
		if (target) details.nodeValue = ' ';
	}, false)

	// ctrl-F for search
	// ctrl-I to toggle case-sensitive search
	window.addEventListener("keydown",function (e) {
		if (e.keyCode === 114 || (e.ctrlKey && e.keyCode === 70)) {
			e.preventDefault();
			search_prompt();
		}
		else if (e.ctrlKey && e.keyCode === 73) {
			e.preventDefault();
			toggle_ignorecase();
		}
	}, false)

	// functions
	function get_params() {
		var params = {};
		var paramsarr = window.location.search.substr(1).split('&');
		for (var i = 0; i < paramsarr.length; ++i) {
			var tmp = paramsarr[i].split("=");
			if (!tmp[0] || !tmp[1]) continue;
			params[tmp[0]]  = decodeURIComponent(tmp[1]);
		}
		return params;
	}
	function parse_params(params) {
		var uri = "?";
		for (var key in params) {
			uri += key + '=' + encodeURIComponent(params[key]) + '&';
		}
		if (uri.slice(-1) == "&")
			uri = uri.substring(0, uri.length - 1);
		if (uri == '?')
			uri = window.location.href.split('?')[0];
		return uri;
	}
	function find_child(node, selector) {
		var children = node.querySelectorAll(selector);
		if (children.length) return children[0];
	}
	function find_group(node) {
		var parent = node.parentElement;
		if (!parent) return;
		if (parent.id == "frames") return node;
		return find_group(parent);
	}
	function orig_save(e, attr, val) {
		if (e.attributes["_orig_" + attr] != undefined) return;
		if (e.attributes[attr] == undefined) return;
		if (val == undefined) val = e.attributes[attr].value;
		e.setAttribute("_orig_" + attr, val);
	}
	function orig_load(e, attr) {
		if (e.attributes["_orig_"+attr] == undefined) return;
		e.attributes[attr].value = e.attributes["_orig_" + attr].value;
		e.removeAttribute("_orig_"+attr);
	}
	function g_to_text(e) {
		var text = find_child(e, "title").firstChild.nodeValue;
		return (text)
	}
	function g_to_func(e) {
		var func = g_to_text(e);
		// if there's any manipulation we want to do to the function
		// name before it's searched, do it here before returning.
		return (func);
	}
	function update_text(e) {
		var r = find_child(e, "rect");
		var t = find_child(e, "text");
		var w = parseFloat(r.attributes.width.value) -3;
		var txt = find_child(e, "title").textContent.replace(/\([^(]*\)$/,"");
		t.attributes.x.value = parseFloat(r.attributes.x.value) + 3;

		// Smaller than this size won't fit anything
		if (w < 2 * 13 * 0.59) {
			t.textContent = "";
			return;
		}

		t.textContent = txt;
		// Fit in full text width
		if (/^ *$/.test(txt) || t.getSubStringLength(0, txt.length) < w)
			return;

		for (var x = txt.length - 2; x > 0; x--) {
			if (t.getSubStringLength(0, x + 2) <= w) {
				t.textContent = txt.substring(0, x) + "..";
				return;
			}
		}
		t.textContent = "";
	}

	// zoom
	function zoom_reset(e) {
		if (e.attributes != undefined) {
			orig_load(e, "x");
			orig_load(e, "width");
		}
		if (e.childNodes == undefined) return;
		for (var i = 0, c = e.childNodes; i < c.length; i++) {
			zoom_reset(c[i]);
		}
	}
	function zoom_child(e, x, ratio) {
		if (e.attributes != undefined) {
			if (e.attributes.x != undefined) {
				orig_save(e, "x");
				e.attributes.x.value = (parseFloat(e.attributes.x.value) - x - 10) * ratio + 10;
				if (e.tagName == "text")
					e.attributes.x.value = find_child(e.parentNode, "rect[x]").attributes.x.value + 3;
			}
			if (e.attributes.width != undefined) {
				orig_save(e, "width");
				e.attributes.width.value = parseFloat(e.attributes.width.value) * ratio;
			}
		}

		if (e.childNodes == undefined) return;
		for (var i = 0, c = e.childNodes; i < c.length; i++) {
			zoom_child(c[i], x - 10, ratio);
		}
	}
	function zoom_parent(e) {
		if (e.attributes) {
			if (e.attributes.x != undefined) {
				orig_save(e, "x");
				e.attributes.x.value = 10;
			}
			if (e.attributes.width != undefined) {
				orig_save(e, "width");
				e.attributes.width.value = parseInt(svg.width.baseVal.value) - (10 * 2);
			}
		}
		if (e.childNodes == undefined) return;
		for (var i = 0, c = e.childNodes; i < c.length; i++) {
			zoom_parent(c[i]);
		}
	}
	function zoom(node) {
		var attr = find_child(node, "rect").attributes;
		var width = parseFloat(attr.width.value);
		var xmin = parseFloat(attr.x.value);
		var xmax = parseFloat(xmin + width);
		var ymin = parseFloat(attr.y.value);
		var ratio = (svg.width.baseVal.value - 2 * 10) / width;

		// XXX: Workaround for JavaScript float issues (fix me)
		var fudge = 0.0001;

		unzoombtn.classList.remove("hide");

		var el = document.getElementById("frames").children;
		for (var i = 0; i < el.length; i++) {
			var e = el[i];
			var a = find_child(e, "rect").attributes;
			var ex = parseFloat(a.x.value);
			var ew = parseFloat(a.width.value);
			var upstack;
			// Is it an ancestor
			if (1 == 0) {
				upstack = parseFloat(a.y.value) > ymin;
			} else {
				upstack = parseFloat(a.y.value) < ymin;
			}
			if (upstack) {
				// Direct ancestor
				if (ex <= xmin && (ex+ew+fudge) >= xmax) {
					e.classList.add("parent");
					zoom_parent(e);
					update_text(e);
				}
				// not in current path
				else
					e.classList.add("hide");
			}
			// Children maybe
			else {
				// no common path
				if (ex < xmin || ex + fudge >= xmax) {
					e.classList.add("hide");
				}
				else {
					zoom_child(e, xmin, ratio);
					update_text(e);
				}
			}
		}
		search();
	}
	function unzoom() {
		unzoombtn.classList.add("hide");
		var el = document.getElementById("frames").children;
		for(var i = 0; i < el.length; i++) {
			el[i].classList.remove("parent");
			el[i].classList.remove("hide");
			zoom_reset(el[i]);
			update_text(el[i]);
		}
		search();
	}
	function clearzoom() {
		unzoom();

		// remove zoom state
		var params = get_params();
		if (params.x) delete params.x;
		if (params.y) delete params.y;
		history.replaceState(null, null, parse_params(params));
	}

	// search
	function toggle_ignorecase() {
		ignorecase = !ignorecase;
		if (ignorecase) {
			ignorecaseBtn.classList.add("show");
		} else {
			ignorecaseBtn.classList.remove("show");
		}
		reset_search();
		search();
	}
	function reset_search() {
		var el = document.querySelectorAll("#frames rect");
		for (var i = 0; i < el.length; i++) {
			orig_load(el[i], "fill")
		}
		var params = get_params();
		delete params.s;
		history.replaceState(null, null, parse_params(params));
	}
	function search_prompt() {
		if (!searching) {
			var term = prompt("Enter a search term (regexp " +
			    "allowed, eg: ^ext4_)"
			    + (ignorecase ? ", ignoring case" : "")
			    + "\nPress Ctrl-i to toggle case sensitivity", "");
			if (term != null) search(term);
		} else {
			reset_search();
			searching = 0;
			currentSearchTerm = null;
			searchbtn.classList.remove("show");
			searchbtn.firstChild.nodeValue = "Search"
			matchedtxt.classList.add("hide");
			matchedtxt.firstChild.nodeValue = ""
		}
	}
	function search(term) {
		if (term) currentSearchTerm = term;

		var re = new RegExp(currentSearchTerm, ignorecase ? 'i' : '');
		var el = document.getElementById("frames").children;
		var matches = new Object();
		var maxwidth = 0;
		for (var i = 0; i < el.length; i++) {
			var e = el[i];
			var func = g_to_func(e);
			var rect = find_child(e, "rect");
			if (func == null || rect == null)
				continue;

			// Save max width. Only works as we have a root frame
			var w = parseFloat(rect.attributes.width.value);
			if (w > maxwidth)
				maxwidth = w;

			if (func.match(re)) {
				// highlight
				var x = parseFloat(rect.attributes.x.value);
				orig_save(rect, "fill");
				rect.attributes.fill.value = "rgb(230,0,230)";

				// remember matches
				if (matches[x] == undefined) {
					matches[x] = w;
				} else {
					if (w > matches[x]) {
						// overwrite with parent
						matches[x] = w;
					}
				}
				searching = 1;
			}
		}
		if (!searching)
			return;
		var params = get_params();
		params.s = currentSearchTerm;
		history.replaceState(null, null, parse_params(params));

		searchbtn.classList.add("show");
		searchbtn.firstChild.nodeValue = "Reset Search";

		// calculate percent matched, excluding vertical overlap
		var count = 0;
		var lastx = -1;
		var lastw = 0;
		var keys = Array();
		for (k in matches) {
			if (matches.hasOwnProperty(k))
				keys.push(k);
		}
		// sort the matched frames by their x location
		// ascending, then width descending
		keys.sort(function(a, b){
			return a - b;
		});
		// Step through frames saving only the biggest bottom-up frames
		// thanks to the sort order. This relies on the tree property
		// where children are always smaller than their parents.
		var fudge = 0.0001;	// JavaScript floating point
		for (var k in keys) {
			var x = parseFloat(keys[k]);
			var w = matches[keys[k]];
			if (x >= lastx + lastw - fudge) {
				count += w;
				lastx = x;
				lastw = w;
			}
		}
		// display matched percent
		matchedtxt.classList.remove("hide");
		var pct = 100 * count / maxwidth;
		if (pct != 100) pct = pct.toFixed(1)
		matchedtxt.firstChild.nodeValue = "Matched: " + pct + "%";
	}
]]>
</script>
<rect x="0.0" y="0" width="1200.0" height="427.0" fill="url(#background)"  />
<text id="title" x="600.00" y="26" >Firedrake example</text>
<text id="details" x="10.00" y="409" > </text>
<text id="unzoom" x="10.00" y="26" class="hide">Reset Zoom</text>
<text id="search" x="1090.00" y="26" >Search</text>
<text id="ignorecase" x="1174.00" y="26" >ic</text>
<text id="matched" x="1090.00" y="409" > </text>
<g id="frames">
<g >
<title>Parloop_ExtFacets_wrap_form_exterior_facet_vert_integral_otherwise (5,469,643 us, 0.14%)</title><rect x="15.3" y="103" width="1.8" height="15.0" fill="rgb(0,0,0)" rx="2" ry="2" />
<text  x="18.35" y="113.5" ></text>
</g>
<g >
<title>firedrake (3,776,012,970 us, 100.00%)</title><rect x="10.0" y="55" width="1180.0" height="15.0" fill="rgb(0,0,0)" rx="2" ry="2" />
<text  x="13.00" y="65.5" >firedrake</text>
</g>
<g >
<title>ParLoopExecute (776,575 us, 0.02%)</title><rect x="692.0" y="311" width="0.2" height="15.0" fill="rgb(0,0,0)" rx="2" ry="2" />
<text  x="694.99" y="321.5" ></text>
</g>
<g >
<title>SNESFunctionEval (27,598,706 us, 0.73%)</title><rect x="1181.4" y="103" width="8.6" height="15.0" fill="rgb(0,0,0)" rx="2" ry="2" />
<text  x="1184.38" y="113.5" ></text>
</g>
<g >
<title>PCSetUp (49,674,408 us, 1.32%)</title><rect x="1162.5" y="215" width="15.5" height="15.0" fill="rgb(0,0,0)" rx="2" ry="2" />
<text  x="1165.47" y="225.5" ></text>
</g>
<g >
<title>ParLoopExecute (1,403,710 us, 0.04%)</title><rect x="1180.9" y="151" width="0.5" height="15.0" fill="rgb(0,0,0)" rx="2" ry="2" />
<text  x="1183.94" y="161.5" ></text>
</g>
<g >
<title>SCBackSub (607,796,263 us, 16.10%)</title><rect x="52.7" y="135" width="189.9" height="15.0" fill="rgb(0,0,0)" rx="2" ry="2" />
<text  x="55.71" y="145.5" >SCBackSub</text>
</g>
<g >
<title>PCApply (9,879,257 us, 0.26%)</title><rect x="691.8" y="215" width="3.1" height="15.0" fill="rgb(0,0,0)" rx="2" ry="2" />
<text  x="694.81" y="225.5" ></text>
</g>
<g >
<title>ParLoopExecute (32,910,936 us, 0.87%)</title><rect x="1163.7" y="231" width="10.3" height="15.0" fill="rgb(0,0,0)" rx="2" ry="2" />
<text  x="1166.73" y="241.5" ></text>
</g>
<g >
<title>firedrake.interpolation.Interpolator.interpolate (3,360,317 us, 0.09%)</title><rect x="693.0" y="327" width="1.0" height="15.0" fill="rgb(0,0,0)" rx="2" ry="2" />
<text  x="695.98" y="337.5" ></text>
</g>
<g >
<title>Parloop_Cells_wrap_form0_interior_facet_horiz_integral_otherwise (5,359,794 us, 0.14%)</title><rect x="26.8" y="119" width="1.6" height="15.0" fill="rgb(0,0,0)" rx="2" ry="2" />
<text  x="29.76" y="129.5" ></text>
</g>
<g >
<title>Parloop_IntFacets_wrap_form0_interior_facet_vert_integral_otherwise (5,807,924 us, 0.15%)</title><rect x="29.9" y="119" width="1.8" height="15.0" fill="rgb(0,0,0)" rx="2" ry="2" />
<text  x="32.89" y="129.5" ></text>
</g>
<g >
<title>pyop2.global_kernel.GlobalKernel.compile (1,728,244 us, 0.05%)</title><rect x="34.5" y="151" width="0.6" height="15.0" fill="rgb(0,0,0)" rx="2" ry="2" />
<text  x="37.53" y="161.5" ></text>
</g>
<g >
<title>firedrake.tsfc_interface.compile_form (48,669,432 us, 1.29%)</title><rect x="1147.3" y="263" width="15.2" height="15.0" fill="rgb(0,0,0)" rx="2" ry="2" />
<text  x="1150.26" y="273.5" ></text>
</g>
<g >
<title>pyop2.global_kernel.GlobalKernel.compile (9,778,761 us, 0.26%)</title><rect x="1186.2" y="151" width="3.1" height="15.0" fill="rgb(0,0,0)" rx="2" ry="2" />
<text  x="1189.22" y="161.5" ></text>
</g>
<g >
<title>Parloop_Cells_wrap_form_cell_integral_otherwise (16,630,003 us, 0.44%)</title><rect x="38.9" y="135" width="5.2" height="15.0" fill="rgb(0,0,0)" rx="2" ry="2" />
<text  x="41.94" y="145.5" ></text>
</g>
<g >
<title>ParLoopExecute (3,360,317 us, 0.09%)</title><rect x="693.0" y="343" width="1.0" height="15.0" fill="rgb(0,0,0)" rx="2" ry="2" />
<text  x="695.98" y="353.5" ></text>
</g>
<g >
<title>Parloop_Cells_wrap_form0_exterior_facet_bottom_integral_otherwise (3,529,573 us, 0.09%)</title><rect x="24.6" y="119" width="1.1" height="15.0" fill="rgb(0,0,0)" rx="2" ry="2" />
<text  x="27.59" y="129.5" ></text>
</g>
<g >
<title>Parloop_Cells_wrap_form1_cell_integral_otherwise (9,778,761 us, 0.26%)</title><rect x="1186.2" y="135" width="3.1" height="15.0" fill="rgb(0,0,0)" rx="2" ry="2" />
<text  x="1189.22" y="145.5" ></text>
</g>
<g >
<title>firedrake.__init__ (2,993,117 us, 0.08%)</title><rect x="11.0" y="71" width="0.9" height="15.0" fill="rgb(0,0,0)" rx="2" ry="2" />
<text  x="13.98" y="81.5" ></text>
</g>
<g >
<title>pyop2.global_kernel.GlobalKernel.compile (3,511,387 us, 0.09%)</title><rect x="14.2" y="119" width="1.1" height="15.0" fill="rgb(0,0,0)" rx="2" ry="2" />
<text  x="17.25" y="129.5" ></text>
</g>
<g >
<title>Parloop_Cells_wrap_form0_cell_integral_otherwise (15,185,016 us, 0.40%)</title><rect x="19.8" y="119" width="4.8" height="15.0" fill="rgb(0,0,0)" rx="2" ry="2" />
<text  x="22.85" y="129.5" ></text>
</g>
<g >
<title>firedrake.tsfc_interface.compile_form (679,428 us, 0.02%)</title><rect x="1180.7" y="167" width="0.2" height="15.0" fill="rgb(0,0,0)" rx="2" ry="2" />
<text  x="1183.72" y="177.5" ></text>
</g>
<g >
<title>PCSetUp (1,403,710 us, 0.04%)</title><rect x="1180.9" y="103" width="0.5" height="15.0" fill="rgb(0,0,0)" rx="2" ry="2" />
<text  x="1183.94" y="113.5" ></text>
</g>
<g >
<title>Parloop_Cells_wrap_slate_loopy_knl_87 (1,427,344,820 us, 37.80%)</title><rect x="701.2" y="279" width="446.1" height="15.0" fill="rgb(0,0,0)" rx="2" ry="2" />
<text  x="704.22" y="289.5" >Parloop_Cells_wrap_slate_loopy_knl_87</text>
</g>
<g >
<title>MatMult (25,728,568 us, 0.68%)</title><rect x="44.7" y="119" width="8.0" height="15.0" fill="rgb(0,0,0)" rx="2" ry="2" />
<text  x="47.67" y="129.5" ></text>
</g>
<g >
<title>MatMult (2,296,042 us, 0.06%)</title><rect x="691.8" y="263" width="0.7" height="15.0" fill="rgb(0,0,0)" rx="2" ry="2" />
<text  x="694.81" y="273.5" ></text>
</g>
<g >
<title>KSPSolve (3,636,055,923 us, 96.29%)</title><rect x="44.7" y="103" width="1136.2" height="15.0" fill="rgb(0,0,0)" rx="2" ry="2" />
<text  x="47.67" y="113.5" >KSPSolve</text>
</g>
<g >
<title>Parloop_Cells_wrap_par_loop_kernel (2,040,406 us, 0.05%)</title><rect x="242.6" y="199" width="0.7" height="15.0" fill="rgb(0,0,0)" rx="2" ry="2" />
<text  x="245.65" y="209.5" ></text>
</g>
<g >
<title>ParLoopExecute (22,292,165 us, 0.59%)</title><rect x="11.9" y="87" width="7.0" height="15.0" fill="rgb(0,0,0)" rx="2" ry="2" />
<text  x="14.92" y="97.5" ></text>
</g>
<g >
<title>pyop2.global_kernel.GlobalKernel.compile (2,052,597 us, 0.05%)</title><rect x="36.1" y="151" width="0.7" height="15.0" fill="rgb(0,0,0)" rx="2" ry="2" />
<text  x="39.13" y="161.5" ></text>
</g>
<g >
<title>KSPSolve (1,557,655,061 us, 41.25%)</title><rect x="691.4" y="151" width="486.8" height="15.0" fill="rgb(0,0,0)" rx="2" ry="2" />
<text  x="694.44" y="161.5" >KSPSolve</text>
</g>
<g >
<title>Parloop_Cells_wrap_expression_kernel (1,309,970 us, 0.03%)</title><rect x="1178.2" y="183" width="0.4" height="15.0" fill="rgb(0,0,0)" rx="2" ry="2" />
<text  x="1181.20" y="193.5" ></text>
</g>
<g >
<title>ParLoopExecute (50,945,160 us, 1.35%)</title><rect x="53.8" y="151" width="15.9" height="15.0" fill="rgb(0,0,0)" rx="2" ry="2" />
<text  x="56.82" y="161.5" ></text>
</g>
<g >
<title>firedrake.parloops.par_loop (2,007,999 us, 0.05%)</title><rect x="53.2" y="167" width="0.6" height="15.0" fill="rgb(0,0,0)" rx="2" ry="2" />
<text  x="56.20" y="177.5" ></text>
</g>
<g >
<title>firedrake.tsfc_interface.compile_form (2,501,482 us, 0.07%)</title><rect x="38.2" y="103" width="0.7" height="15.0" fill="rgb(0,0,0)" rx="2" ry="2" />
<text  x="41.16" y="113.5" ></text>
</g>
<g >
<title>firedrake.tsfc_interface.compile_form (2,329,918 us, 0.06%)</title><rect x="1189.3" y="119" width="0.7" height="15.0" fill="rgb(0,0,0)" rx="2" ry="2" />
<text  x="1192.27" y="129.5" ></text>
</g>
<g >
<title>ParLoopExecute (757,009 us, 0.02%)</title><rect x="692.7" y="311" width="0.3" height="15.0" fill="rgb(0,0,0)" rx="2" ry="2" />
<text  x="695.74" y="321.5" ></text>
</g>
<g >
<title>ParLoopExecute (23,259,004 us, 0.62%)</title><rect x="44.7" y="151" width="7.2" height="15.0" fill="rgb(0,0,0)" rx="2" ry="2" />
<text  x="47.67" y="161.5" ></text>
</g>
<g >
<title>PCSetUp (8,754,588 us, 0.23%)</title><rect x="1178.2" y="151" width="2.7" height="15.0" fill="rgb(0,0,0)" rx="2" ry="2" />
<text  x="1181.20" y="161.5" ></text>
</g>
<g >
<title>Parloop_Cells_wrap_par_loop_kernel (2,007,999 us, 0.05%)</title><rect x="53.2" y="199" width="0.6" height="15.0" fill="rgb(0,0,0)" rx="2" ry="2" />
<text  x="56.20" y="209.5" ></text>
</g>
<g >
<title>ParLoopExecute (508,512,755 us, 13.47%)</title><rect x="72.5" y="167" width="158.9" height="15.0" fill="rgb(0,0,0)" rx="2" ry="2" />
<text  x="75.52" y="177.5" >ParLoopExecute</text>
</g>
<g >
<title>pyop2.global_kernel.GlobalKernel.compile (2,007,999 us, 0.05%)</title><rect x="53.2" y="215" width="0.6" height="15.0" fill="rgb(0,0,0)" rx="2" ry="2" />
<text  x="56.20" y="225.5" ></text>
</g>
<g >
<title>Parloop_Cells_wrap_form_interior_facet_horiz_integral_otherwise (3,511,387 us, 0.09%)</title><rect x="14.2" y="103" width="1.1" height="15.0" fill="rgb(0,0,0)" rx="2" ry="2" />
<text  x="17.25" y="113.5" ></text>
</g>
<g >
<title>Parloop_Cells_wrap_form0_cell_integral_otherwise (15,747,771 us, 0.42%)</title><rect x="44.7" y="167" width="4.9" height="15.0" fill="rgb(0,0,0)" rx="2" ry="2" />
<text  x="47.67" y="177.5" ></text>
</g>
<g >
<title>pyop2.global_kernel.GlobalKernel.compile (895,348 us, 0.02%)</title><rect x="694.3" y="311" width="0.3" height="15.0" fill="rgb(0,0,0)" rx="2" ry="2" />
<text  x="697.32" y="321.5" ></text>
</g>
<g >
<title>PCApply (3,610,327,355 us, 95.61%)</title><rect x="52.7" y="119" width="1128.2" height="15.0" fill="rgb(0,0,0)" rx="2" ry="2" />
<text  x="55.71" y="129.5" >PCApply</text>
</g>
<g >
<title>pyop2.global_kernel.GlobalKernel.compile (5,359,794 us, 0.14%)</title><rect x="26.8" y="135" width="1.6" height="15.0" fill="rgb(0,0,0)" rx="2" ry="2" />
<text  x="29.76" y="145.5" ></text>
</g>
<g >
<title>Parloop_Cells_wrap_par_loop_kernel (1,403,710 us, 0.04%)</title><rect x="1180.9" y="167" width="0.5" height="15.0" fill="rgb(0,0,0)" rx="2" ry="2" />
<text  x="1183.94" y="177.5" ></text>
</g>
<g >
<title>pyop2.global_kernel.GlobalKernel.compile (15,747,771 us, 0.42%)</title><rect x="44.7" y="183" width="4.9" height="15.0" fill="rgb(0,0,0)" rx="2" ry="2" />
<text  x="47.67" y="193.5" ></text>
</g>
<g >
<title>Parloop_Cells_wrap_form1_cell_integral_otherwise (7,511,233 us, 0.20%)</title><rect x="49.6" y="167" width="2.3" height="15.0" fill="rgb(0,0,0)" rx="2" ry="2" />
<text  x="52.59" y="177.5" ></text>
</g>
<g >
<title>HybridBreak (2,040,406 us, 0.05%)</title><rect x="242.6" y="151" width="0.7" height="15.0" fill="rgb(0,0,0)" rx="2" ry="2" />
<text  x="245.65" y="161.5" ></text>
</g>
<g >
<title>SCSolve (1,566,409,649 us, 41.48%)</title><rect x="691.4" y="135" width="489.5" height="15.0" fill="rgb(0,0,0)" rx="2" ry="2" />
<text  x="694.44" y="145.5" >SCSolve</text>
</g>
<g >
<title>firedrake.interpolation.interpolate (3,360,317 us, 0.09%)</title><rect x="693.0" y="311" width="1.0" height="15.0" fill="rgb(0,0,0)" rx="2" ry="2" />
<text  x="695.98" y="321.5" ></text>
</g>
<g >
<title>pyop2.global_kernel.GlobalKernel.compile (7,511,233 us, 0.20%)</title><rect x="49.6" y="183" width="2.3" height="15.0" fill="rgb(0,0,0)" rx="2" ry="2" />
<text  x="52.59" y="193.5" ></text>
</g>
<g >
<title>PCSetUp (7,583,215 us, 0.20%)</title><rect x="692.5" y="231" width="2.4" height="15.0" fill="rgb(0,0,0)" rx="2" ry="2" />
<text  x="695.53" y="241.5" ></text>
</g>
<g >
<title>firedrake.assemble.assemble (18,350,939 us, 0.49%)</title><rect x="38.9" y="103" width="5.8" height="15.0" fill="rgb(0,0,0)" rx="2" ry="2" />
<text  x="41.94" y="113.5" ></text>
</g>
<g >
<title>pyop2.global_kernel.GlobalKernel.compile (2,163,080 us, 0.06%)</title><rect x="36.8" y="151" width="0.6" height="15.0" fill="rgb(0,0,0)" rx="2" ry="2" />
<text  x="39.77" y="161.5" ></text>
</g>
<g >
<title>Parloop_Cells_wrap_wrap_slate_loopy_knl_77 (32,910,936 us, 0.87%)</title><rect x="1163.7" y="247" width="10.3" height="15.0" fill="rgb(0,0,0)" rx="2" ry="2" />
<text  x="1166.73" y="257.5" ></text>
</g>
<g >
<title>PCApply (2,296,042 us, 0.06%)</title><rect x="691.8" y="231" width="0.7" height="15.0" fill="rgb(0,0,0)" rx="2" ry="2" />
<text  x="694.81" y="241.5" ></text>
</g>
<g >
<title>firedrake.mg.embedded.TransferManager.op (2,296,042 us, 0.06%)</title><rect x="691.8" y="279" width="0.7" height="15.0" fill="rgb(0,0,0)" rx="2" ry="2" />
<text  x="694.81" y="289.5" ></text>
</g>
<g >
<title>firedrake.parloops.par_loop (1,403,710 us, 0.04%)</title><rect x="1180.9" y="135" width="0.5" height="15.0" fill="rgb(0,0,0)" rx="2" ry="2" />
<text  x="1183.94" y="145.5" ></text>
</g>
<g >
<title>firedrake.dmhooks.coarsen (5,739,905 us, 0.15%)</title><rect x="692.5" y="263" width="1.8" height="15.0" fill="rgb(0,0,0)" rx="2" ry="2" />
<text  x="695.53" y="273.5" ></text>
</g>
<g >
<title>pyop2.global_kernel.GlobalKernel.compile (1,759,920 us, 0.05%)</title><rect x="35.6" y="151" width="0.5" height="15.0" fill="rgb(0,0,0)" rx="2" ry="2" />
<text  x="38.58" y="161.5" ></text>
</g>
<g >
<title>KSPSolve (11,089,595 us, 0.29%)</title><rect x="691.4" y="199" width="3.5" height="15.0" fill="rgb(0,0,0)" rx="2" ry="2" />
<text  x="694.44" y="209.5" ></text>
</g>
<g >
<title>firedrake.tsfc_interface.compile_form (1,720,936 us, 0.05%)</title><rect x="44.1" y="119" width="0.6" height="15.0" fill="rgb(0,0,0)" rx="2" ry="2" />
<text  x="47.14" y="129.5" ></text>
</g>
<g >
<title>Parloop_set_#x7fe8bb5c4700_wrap_expression_kernel (590,298 us, 0.02%)</title><rect x="18.9" y="135" width="0.2" height="15.0" fill="rgb(0,0,0)" rx="2" ry="2" />
<text  x="21.89" y="145.5" ></text>
</g>
<g >
<title>pyop2.global_kernel.GlobalKernel.compile (1,427,344,820 us, 37.80%)</title><rect x="701.2" y="295" width="446.1" height="15.0" fill="rgb(0,0,0)" rx="2" ry="2" />
<text  x="704.22" y="305.5" >pyop2.global_kernel.GlobalKernel.compile</text>
</g>
<g >
<title>Parloop_Cells_wrap_pyop2_kernel_uniform_extrusion (1,204,591 us, 0.03%)</title><rect x="10.6" y="119" width="0.4" height="15.0" fill="rgb(0,0,0)" rx="2" ry="2" />
<text  x="13.61" y="129.5" ></text>
</g>
<g >
<title>pyop2.global_kernel.GlobalKernel.compile (50,945,160 us, 1.35%)</title><rect x="53.8" y="183" width="15.9" height="15.0" fill="rgb(0,0,0)" rx="2" ry="2" />
<text  x="56.82" y="193.5" ></text>
</g>
<g >
<title>CreateExtMesh (1,204,591 us, 0.03%)</title><rect x="10.6" y="71" width="0.4" height="15.0" fill="rgb(0,0,0)" rx="2" ry="2" />
<text  x="13.61" y="81.5" ></text>
</g>
<g >
<title>KSPSolve (1,496,227,398 us, 39.62%)</title><rect x="694.9" y="215" width="467.6" height="15.0" fill="rgb(0,0,0)" rx="2" ry="2" />
<text  x="697.90" y="225.5" >KSPSolve</text>
</g>
<g >
<title>Parloop_set_#x7fe8bb5c7040_wrap_pyop2_kernel_inject (757,009 us, 0.02%)</title><rect x="692.7" y="327" width="0.3" height="15.0" fill="rgb(0,0,0)" rx="2" ry="2" />
<text  x="695.74" y="337.5" ></text>
</g>
<g >
<title>firedrake.mg.interface.prolong (2,296,042 us, 0.06%)</title><rect x="691.8" y="295" width="0.7" height="15.0" fill="rgb(0,0,0)" rx="2" ry="2" />
<text  x="694.81" y="305.5" ></text>
</g>
<g >
<title>pyop2.global_kernel.GlobalKernel.compile (1,618,832 us, 0.04%)</title><rect x="35.1" y="151" width="0.5" height="15.0" fill="rgb(0,0,0)" rx="2" ry="2" />
<text  x="38.07" y="161.5" ></text>
</g>
<g >
<title>pyop2.global_kernel.GlobalKernel.compile (3,400,668 us, 0.09%)</title><rect x="25.7" y="135" width="1.1" height="15.0" fill="rgb(0,0,0)" rx="2" ry="2" />
<text  x="28.70" y="145.5" ></text>
</g>
<g >
<title>pyop2.global_kernel.GlobalKernel.compile (1,403,710 us, 0.04%)</title><rect x="1180.9" y="183" width="0.5" height="15.0" fill="rgb(0,0,0)" rx="2" ry="2" />
<text  x="1183.94" y="193.5" ></text>
</g>
<g >
<title>MGInterp Level 1 (2,296,042 us, 0.06%)</title><rect x="691.8" y="247" width="0.7" height="15.0" fill="rgb(0,0,0)" rx="2" ry="2" />
<text  x="694.81" y="257.5" ></text>
</g>
<g >
<title>pyop2.global_kernel.GlobalKernel.compile (3,663,406 us, 0.10%)</title><rect x="13.1" y="119" width="1.1" height="15.0" fill="rgb(0,0,0)" rx="2" ry="2" />
<text  x="16.10" y="129.5" ></text>
</g>
<g >
<title>RecoverFirstElim (546,493,341 us, 14.47%)</title><rect x="69.7" y="151" width="170.8" height="15.0" fill="rgb(0,0,0)" rx="2" ry="2" />
<text  x="72.74" y="161.5" >RecoverFirstElim</text>
</g>
<g >
<title>Log_Event_slate_loopy_knl_87 (1,210,338 us, 0.03%)</title><rect x="691.4" y="279" width="0.4" height="15.0" fill="rgb(0,0,0)" rx="2" ry="2" />
<text  x="694.44" y="289.5" ></text>
</g>
<g >
<title>firedrake.pointquery_utils.to_reference_coordinates (947,962 us, 0.03%)</title><rect x="694.6" y="279" width="0.3" height="15.0" fill="rgb(0,0,0)" rx="2" ry="2" />
<text  x="697.60" y="289.5" ></text>
</g>
<g >
<title>Parloop_ExtFacets_wrap_form0_exterior_facet_vert_integral_otherwise (4,649,005 us, 0.12%)</title><rect x="28.4" y="119" width="1.5" height="15.0" fill="rgb(0,0,0)" rx="2" ry="2" />
<text  x="31.43" y="129.5" ></text>
</g>
<g >
<title>firedrake.tsfc_interface.compile_form (12,747,367 us, 0.34%)</title><rect x="1174.0" y="231" width="4.0" height="15.0" fill="rgb(0,0,0)" rx="2" ry="2" />
<text  x="1177.01" y="241.5" ></text>
</g>
<g >
<title>ParLoopExecute (37,931,980 us, 1.00%)</title><rect x="19.8" y="103" width="11.9" height="15.0" fill="rgb(0,0,0)" rx="2" ry="2" />
<text  x="22.85" y="113.5" ></text>
</g>
<g >
<title>PCApply (1,557,655,061 us, 41.25%)</title><rect x="691.4" y="167" width="486.8" height="15.0" fill="rgb(0,0,0)" rx="2" ry="2" />
<text  x="694.44" y="177.5" >PCApply</text>
</g>
<g >
<title>MatMult (1,496,227,398 us, 39.62%)</title><rect x="694.9" y="231" width="467.6" height="15.0" fill="rgb(0,0,0)" rx="2" ry="2" />
<text  x="697.90" y="241.5" >MatMult</text>
</g>
<g >
<title>firedrake.parloops.par_loop (2,040,406 us, 0.05%)</title><rect x="242.6" y="167" width="0.7" height="15.0" fill="rgb(0,0,0)" rx="2" ry="2" />
<text  x="245.65" y="177.5" ></text>
</g>
<g >
<title>pyop2.global_kernel.GlobalKernel.compile (16,630,003 us, 0.44%)</title><rect x="38.9" y="151" width="5.2" height="15.0" fill="rgb(0,0,0)" rx="2" ry="2" />
<text  x="41.94" y="161.5" ></text>
</g>
<g >
<title>firedrake.matrix_free.operators.ImplicitMatrixContext.mult (25,728,568 us, 0.68%)</title><rect x="44.7" y="135" width="8.0" height="15.0" fill="rgb(0,0,0)" rx="2" ry="2" />
<text  x="47.67" y="145.5" ></text>
</g>
<g >
<title>Parloop_IntFacets_wrap_form_interior_facet_vert_integral_otherwise (5,853,398 us, 0.16%)</title><rect x="17.1" y="103" width="1.8" height="15.0" fill="rgb(0,0,0)" rx="2" ry="2" />
<text  x="20.06" y="113.5" ></text>
</g>
<g >
<title>ParLoopExecute (18,385,218 us, 0.49%)</title><rect x="31.7" y="119" width="5.7" height="15.0" fill="rgb(0,0,0)" rx="2" ry="2" />
<text  x="34.70" y="129.5" ></text>
</g>
<g >
<title>firedrake.mg.interface.inject (5,739,905 us, 0.15%)</title><rect x="692.5" y="295" width="1.8" height="15.0" fill="rgb(0,0,0)" rx="2" ry="2" />
<text  x="695.53" y="305.5" ></text>
</g>
<g >
<title>pyop2.global_kernel.GlobalKernel.compile (3,794,331 us, 0.10%)</title><rect x="11.9" y="119" width="1.2" height="15.0" fill="rgb(0,0,0)" rx="2" ry="2" />
<text  x="14.92" y="129.5" ></text>
</g>
<g >
<title>firedrake.tsfc_interface.compile_form (29,103,688 us, 0.77%)</title><rect x="231.4" y="167" width="9.1" height="15.0" fill="rgb(0,0,0)" rx="2" ry="2" />
<text  x="234.43" y="177.5" ></text>
</g>
<g >
<title>firedrake.matrix_free.operators.ImplicitMatrixContext.mult (1,210,338 us, 0.03%)</title><rect x="691.4" y="231" width="0.4" height="15.0" fill="rgb(0,0,0)" rx="2" ry="2" />
<text  x="694.44" y="241.5" ></text>
</g>
<g >
<title>Parloop_Cells_wrap_form00_exterior_facet_bottom_integral_otherwise (1,728,244 us, 0.05%)</title><rect x="34.5" y="135" width="0.6" height="15.0" fill="rgb(0,0,0)" rx="2" ry="2" />
<text  x="37.53" y="145.5" ></text>
</g>
<g >
<title>firedrake.assemble.assemble (25,370,330 us, 0.67%)</title><rect x="11.9" y="71" width="7.9" height="15.0" fill="rgb(0,0,0)" rx="2" ry="2" />
<text  x="14.92" y="81.5" ></text>
</g>
<g >
<title>ParLoopExecute (1,204,591 us, 0.03%)</title><rect x="10.6" y="103" width="0.4" height="15.0" fill="rgb(0,0,0)" rx="2" ry="2" />
<text  x="13.61" y="113.5" ></text>
</g>
<g >
<title>firedrake.tsfc_interface.compile_form (1,825,522 us, 0.05%)</title><rect x="19.3" y="87" width="0.5" height="15.0" fill="rgb(0,0,0)" rx="2" ry="2" />
<text  x="22.28" y="97.5" ></text>
</g>
<g >
<title>HybridProject (2,007,999 us, 0.05%)</title><rect x="53.2" y="151" width="0.6" height="15.0" fill="rgb(0,0,0)" rx="2" ry="2" />
<text  x="56.20" y="161.5" ></text>
</g>
<g >
<title>firedrake.tsfc_interface.compile_form (45,610,751 us, 1.21%)</title><rect x="677.2" y="167" width="14.2" height="15.0" fill="rgb(0,0,0)" rx="2" ry="2" />
<text  x="680.18" y="177.5" ></text>
</g>
<g >
<title>pyop2.global_kernel.GlobalKernel.compile (15,490,027 us, 0.41%)</title><rect x="1181.4" y="151" width="4.8" height="15.0" fill="rgb(0,0,0)" rx="2" ry="2" />
<text  x="1184.38" y="161.5" ></text>
</g>
<g >
<title>MatMultTranspose (1,843,310 us, 0.05%)</title><rect x="694.3" y="247" width="0.6" height="15.0" fill="rgb(0,0,0)" rx="2" ry="2" />
<text  x="697.32" y="257.5" ></text>
</g>
<g >
<title>firedrake.mg.embedded.TransferManager.op (5,739,905 us, 0.15%)</title><rect x="692.5" y="279" width="1.8" height="15.0" fill="rgb(0,0,0)" rx="2" ry="2" />
<text  x="695.53" y="289.5" ></text>
</g>
<g >
<title>all (3,776,012,970 us, 100%)</title><rect x="10.0" y="39" width="1180.0" height="15.0" fill="rgb(0,0,0)" rx="2" ry="2" />
<text  x="13.00" y="49.5" ></text>
</g>
<g >
<title>firedrake.matrix_free.operators.ImplicitMatrixContext.mult (1,496,227,398 us, 39.62%)</title><rect x="694.9" y="247" width="467.6" height="15.0" fill="rgb(0,0,0)" rx="2" ry="2" />
<text  x="697.90" y="257.5" >firedrake.matrix_free.operators.ImplicitMatrixContext.mult</text>
</g>
<g >
<title>ParLoopExecute (2,040,406 us, 0.05%)</title><rect x="242.6" y="183" width="0.7" height="15.0" fill="rgb(0,0,0)" rx="2" ry="2" />
<text  x="245.65" y="193.5" ></text>
</g>
<g >
<title>firedrake.projection.project (61,092,819 us, 1.62%)</title><rect x="19.8" y="87" width="19.1" height="15.0" fill="rgb(0,0,0)" rx="2" ry="2" />
<text  x="22.85" y="97.5" ></text>
</g>
<g >
<title>ParLoopExecute (2,007,999 us, 0.05%)</title><rect x="53.2" y="183" width="0.6" height="15.0" fill="rgb(0,0,0)" rx="2" ry="2" />
<text  x="56.20" y="193.5" ></text>
</g>
<g >
<title>pyop2.global_kernel.GlobalKernel.compile (9,062,545 us, 0.24%)</title><rect x="31.7" y="151" width="2.8" height="15.0" fill="rgb(0,0,0)" rx="2" ry="2" />
<text  x="34.70" y="161.5" ></text>
</g>
<g >
<title>pyop2.global_kernel.GlobalKernel.compile (6,765,190 us, 0.18%)</title><rect x="1178.6" y="199" width="2.1" height="15.0" fill="rgb(0,0,0)" rx="2" ry="2" />
<text  x="1181.61" y="209.5" ></text>
</g>
<g >
<title>pyop2.global_kernel.GlobalKernel.compile (757,009 us, 0.02%)</title><rect x="692.7" y="343" width="0.3" height="15.0" fill="rgb(0,0,0)" rx="2" ry="2" />
<text  x="695.74" y="353.5" ></text>
</g>
<g >
<title>pyop2.global_kernel.GlobalKernel.compile (508,512,755 us, 13.47%)</title><rect x="72.5" y="199" width="158.9" height="15.0" fill="rgb(0,0,0)" rx="2" ry="2" />
<text  x="75.52" y="209.5" >pyop2.global_kerne..</text>
</g>
<g >
<title>SNESSolve (3,665,058,339 us, 97.06%)</title><rect x="44.7" y="87" width="1145.3" height="15.0" fill="rgb(0,0,0)" rx="2" ry="2" />
<text  x="47.67" y="97.5" >SNESSolve</text>
</g>
<g >
<title>firedrake.norms.norm (18,350,939 us, 0.49%)</title><rect x="38.9" y="87" width="5.8" height="15.0" fill="rgb(0,0,0)" rx="2" ry="2" />
<text  x="41.94" y="97.5" ></text>
</g>
<g >
<title>ParLoopExecute (1,252,643 us, 0.03%)</title><rect x="18.9" y="119" width="0.4" height="15.0" fill="rgb(0,0,0)" rx="2" ry="2" />
<text  x="21.89" y="129.5" ></text>
</g>
<g >
<title>Parloop_set_#x7fe8c3707820_wrap_expression_kernel (662,345 us, 0.02%)</title><rect x="19.1" y="135" width="0.2" height="15.0" fill="rgb(0,0,0)" rx="2" ry="2" />
<text  x="22.07" y="145.5" ></text>
</g>
<g >
<title>pyop2.global_kernel.GlobalKernel.compile (32,910,936 us, 0.87%)</title><rect x="1163.7" y="263" width="10.3" height="15.0" fill="rgb(0,0,0)" rx="2" ry="2" />
<text  x="1166.73" y="273.5" ></text>
</g>
<g >
<title>firedrake.function.Function.project (61,092,819 us, 1.62%)</title><rect x="19.8" y="71" width="19.1" height="15.0" fill="rgb(0,0,0)" rx="2" ry="2" />
<text  x="22.85" y="81.5" ></text>
</g>
<g >
<title>ParLoopExecute (16,630,003 us, 0.44%)</title><rect x="38.9" y="119" width="5.2" height="15.0" fill="rgb(0,0,0)" rx="2" ry="2" />
<text  x="41.94" y="129.5" ></text>
</g>
<g >
<title>DMCoarsen (5,739,905 us, 0.15%)</title><rect x="692.5" y="247" width="1.8" height="15.0" fill="rgb(0,0,0)" rx="2" ry="2" />
<text  x="695.53" y="257.5" ></text>
</g>
<g >
<title>Parloop_Cells_wrap_slate_loopy_knl_166 (508,512,755 us, 13.47%)</title><rect x="72.5" y="183" width="158.9" height="15.0" fill="rgb(0,0,0)" rx="2" ry="2" />
<text  x="75.52" y="193.5" >Parloop_Cells_wrap..</text>
</g>
<g >
<title>firedrake.extrusion_utils.make_extruded_coords (1,204,591 us, 0.03%)</title><rect x="10.6" y="87" width="0.4" height="15.0" fill="rgb(0,0,0)" rx="2" ry="2" />
<text  x="13.61" y="97.5" ></text>
</g>
<g >
<title>HybridRHS (1,434,081,037 us, 37.98%)</title><rect x="243.3" y="151" width="448.1" height="15.0" fill="rgb(0,0,0)" rx="2" ry="2" />
<text  x="246.29" y="161.5" >HybridRHS</text>
</g>
<g >
<title>firedrake.pointquery_utils.to_reference_coordinates (949,908 us, 0.03%)</title><rect x="692.2" y="311" width="0.3" height="15.0" fill="rgb(0,0,0)" rx="2" ry="2" />
<text  x="695.23" y="321.5" ></text>
</g>
<g >
<title>ParLoopExecute (25,268,788 us, 0.67%)</title><rect x="1181.4" y="119" width="7.9" height="15.0" fill="rgb(0,0,0)" rx="2" ry="2" />
<text  x="1184.38" y="129.5" ></text>
</g>
<g >
<title>firedrake.norms.errornorm (18,350,939 us, 0.49%)</title><rect x="38.9" y="71" width="5.8" height="15.0" fill="rgb(0,0,0)" rx="2" ry="2" />
<text  x="41.94" y="81.5" ></text>
</g>
<g >
<title>Parloop_Cells_wrap_slate_loopy_knl_209 (50,945,160 us, 1.35%)</title><rect x="53.8" y="167" width="15.9" height="15.0" fill="rgb(0,0,0)" rx="2" ry="2" />
<text  x="56.82" y="177.5" ></text>
</g>
<g >
<title>PCSetUp (1,546,565,466 us, 40.96%)</title><rect x="694.9" y="183" width="483.3" height="15.0" fill="rgb(0,0,0)" rx="2" ry="2" />
<text  x="697.90" y="193.5" >PCSetUp</text>
</g>
<g >
<title>Parloop_ExtFacets_wrap_form00_exterior_facet_vert_integral_otherwise (2,052,597 us, 0.05%)</title><rect x="36.1" y="135" width="0.7" height="15.0" fill="rgb(0,0,0)" rx="2" ry="2" />
<text  x="39.13" y="145.5" ></text>
</g>
<g >
<title>ParLoopExecute (1,427,344,820 us, 37.80%)</title><rect x="701.2" y="263" width="446.1" height="15.0" fill="rgb(0,0,0)" rx="2" ry="2" />
<text  x="704.22" y="273.5" >ParLoopExecute</text>
</g>
<g >
<title>KSPSetUp (1,545,901,806 us, 40.94%)</title><rect x="694.9" y="199" width="483.1" height="15.0" fill="rgb(0,0,0)" rx="2" ry="2" />
<text  x="697.90" y="209.5" >KSPSetUp</text>
</g>
<g >
<title>firedrake.variational_solver.NonlinearVariationalSolver.solve (3,665,058,339 us, 97.06%)</title><rect x="44.7" y="71" width="1145.3" height="15.0" fill="rgb(0,0,0)" rx="2" ry="2" />
<text  x="47.67" y="81.5" >firedrake.variational_solver.NonlinearVariationalSolver.solve</text>
</g>
<g >
<title>pyop2.global_kernel.GlobalKernel.compile (590,298 us, 0.02%)</title><rect x="18.9" y="151" width="0.2" height="15.0" fill="rgb(0,0,0)" rx="2" ry="2" />
<text  x="21.89" y="161.5" ></text>
</g>
<g >
<title>Parloop_Cells_wrap_slate_loopy_knl_87 (1,210,338 us, 0.03%)</title><rect x="691.4" y="263" width="0.4" height="15.0" fill="rgb(0,0,0)" rx="2" ry="2" />
<text  x="694.44" y="273.5" ></text>
</g>
<g >
<title>MatMult (1,210,338 us, 0.03%)</title><rect x="691.4" y="215" width="0.4" height="15.0" fill="rgb(0,0,0)" rx="2" ry="2" />
<text  x="694.44" y="225.5" ></text>
</g>
<g >
<title>Parloop_Cells_wrap_form00_interior_facet_horiz_integral_otherwise (1,759,920 us, 0.05%)</title><rect x="35.6" y="135" width="0.5" height="15.0" fill="rgb(0,0,0)" rx="2" ry="2" />
<text  x="38.58" y="145.5" ></text>
</g>
<g >
<title>Parloop_Cells_wrap_form0_exterior_facet_top_integral_otherwise (3,400,668 us, 0.09%)</title><rect x="25.7" y="119" width="1.1" height="15.0" fill="rgb(0,0,0)" rx="2" ry="2" />
<text  x="28.70" y="129.5" ></text>
</g>
<g >
<title>pyop2.global_kernel.GlobalKernel.compile (5,853,398 us, 0.16%)</title><rect x="17.1" y="119" width="1.8" height="15.0" fill="rgb(0,0,0)" rx="2" ry="2" />
<text  x="20.06" y="129.5" ></text>
</g>
<g >
<title>HybridInit (1,403,710 us, 0.04%)</title><rect x="1180.9" y="119" width="0.5" height="15.0" fill="rgb(0,0,0)" rx="2" ry="2" />
<text  x="1183.94" y="129.5" ></text>
</g>
<g >
<title>firedrake.assemble_expressions.assemble_expression (1,252,643 us, 0.03%)</title><rect x="18.9" y="87" width="0.4" height="15.0" fill="rgb(0,0,0)" rx="2" ry="2" />
<text  x="21.89" y="97.5" ></text>
</g>
<g >
<title>pyop2.global_kernel.GlobalKernel.compile (776,575 us, 0.02%)</title><rect x="692.0" y="343" width="0.2" height="15.0" fill="rgb(0,0,0)" rx="2" ry="2" />
<text  x="694.99" y="353.5" ></text>
</g>
<g >
<title>SCForwardElim (1,436,121,443 us, 38.03%)</title><rect x="242.6" y="135" width="448.8" height="15.0" fill="rgb(0,0,0)" rx="2" ry="2" />
<text  x="245.65" y="145.5" >SCForwardElim</text>
</g>
<g >
<title>Parloop_set_#x7fe8bb5c7040_wrap_pyop2_kernel_prolong (776,575 us, 0.02%)</title><rect x="692.0" y="327" width="0.2" height="15.0" fill="rgb(0,0,0)" rx="2" ry="2" />
<text  x="694.99" y="337.5" ></text>
</g>
<g >
<title>Parloop_Cells_wrap_expression_kernel (3,360,317 us, 0.09%)</title><rect x="693.0" y="359" width="1.0" height="15.0" fill="rgb(0,0,0)" rx="2" ry="2" />
<text  x="695.98" y="369.5" ></text>
</g>
<g >
<title>Parloop_Cells_wrap_form_exterior_facet_bottom_integral_otherwise (3,794,331 us, 0.10%)</title><rect x="11.9" y="103" width="1.2" height="15.0" fill="rgb(0,0,0)" rx="2" ry="2" />
<text  x="14.92" y="113.5" ></text>
</g>
<g >
<title>Parloop_Cells_wrap_form0_cell_integral_otherwise (15,490,027 us, 0.41%)</title><rect x="1181.4" y="135" width="4.8" height="15.0" fill="rgb(0,0,0)" rx="2" ry="2" />
<text  x="1184.38" y="145.5" ></text>
</g>
<g >
<title>Parloop_Cells_wrap_slate_loopy_knl_0 (1,368,949,948 us, 36.25%)</title><rect x="249.4" y="183" width="427.8" height="15.0" fill="rgb(0,0,0)" rx="2" ry="2" />
<text  x="252.39" y="193.5" >Parloop_Cells_wrap_slate_loopy_knl_0</text>
</g>
<g >
<title>Parloop_Cells_wrap_form00_cell_integral_otherwise (6,765,190 us, 0.18%)</title><rect x="1178.6" y="183" width="2.1" height="15.0" fill="rgb(0,0,0)" rx="2" ry="2" />
<text  x="1181.61" y="193.5" ></text>
</g>
<g >
<title>pyop2.global_kernel.GlobalKernel.compile (1,204,591 us, 0.03%)</title><rect x="10.6" y="135" width="0.4" height="15.0" fill="rgb(0,0,0)" rx="2" ry="2" />
<text  x="13.61" y="145.5" ></text>
</g>
<g >
<title>firedrake.tsfc_interface.compile_form (2,469,564 us, 0.07%)</title><rect x="51.9" y="151" width="0.8" height="15.0" fill="rgb(0,0,0)" rx="2" ry="2" />
<text  x="54.94" y="161.5" ></text>
</g>
<g >
<title>pyop2.global_kernel.GlobalKernel.compile (1,368,949,948 us, 36.25%)</title><rect x="249.4" y="199" width="427.8" height="15.0" fill="rgb(0,0,0)" rx="2" ry="2" />
<text  x="252.39" y="209.5" >pyop2.global_kernel.GlobalKernel.compile</text>
</g>
<g >
<title>ParLoopExecute (1,368,949,948 us, 36.25%)</title><rect x="249.4" y="167" width="427.8" height="15.0" fill="rgb(0,0,0)" rx="2" ry="2" />
<text  x="252.39" y="177.5" >ParLoopExecute</text>
</g>
<g >
<title>pyop2.global_kernel.GlobalKernel.compile (1,309,970 us, 0.03%)</title><rect x="1178.2" y="199" width="0.4" height="15.0" fill="rgb(0,0,0)" rx="2" ry="2" />
<text  x="1181.20" y="209.5" ></text>
</g>
<g >
<title>pyop2.global_kernel.GlobalKernel.compile (5,807,924 us, 0.15%)</title><rect x="29.9" y="135" width="1.8" height="15.0" fill="rgb(0,0,0)" rx="2" ry="2" />
<text  x="32.89" y="145.5" ></text>
</g>
<g >
<title>firedrake.tsfc_interface.compile_form (663,660 us, 0.02%)</title><rect x="1178.0" y="215" width="0.2" height="15.0" fill="rgb(0,0,0)" rx="2" ry="2" />
<text  x="1180.99" y="225.5" ></text>
</g>
<g >
<title>ParLoopExecute (8,075,160 us, 0.21%)</title><rect x="1178.2" y="167" width="2.5" height="15.0" fill="rgb(0,0,0)" rx="2" ry="2" />
<text  x="1181.20" y="177.5" ></text>
</g>
<g >
<title>pyop2.global_kernel.GlobalKernel.compile (2,040,406 us, 0.05%)</title><rect x="242.6" y="215" width="0.7" height="15.0" fill="rgb(0,0,0)" rx="2" ry="2" />
<text  x="245.65" y="225.5" ></text>
</g>
<g >
<title>Parloop_Cells_wrap_form00_cell_integral_otherwise (9,062,545 us, 0.24%)</title><rect x="31.7" y="135" width="2.8" height="15.0" fill="rgb(0,0,0)" rx="2" ry="2" />
<text  x="34.70" y="145.5" ></text>
</g>
<g >
<title>pyop2.global_kernel.GlobalKernel.compile (4,649,005 us, 0.12%)</title><rect x="28.4" y="135" width="1.5" height="15.0" fill="rgb(0,0,0)" rx="2" ry="2" />
<text  x="31.43" y="145.5" ></text>
</g>
<g >
<title>Parloop_set_#x7fe8bb62ee90_wrap_pyop2_kernel_restrict (895,348 us, 0.02%)</title><rect x="694.3" y="295" width="0.3" height="15.0" fill="rgb(0,0,0)" rx="2" ry="2" />
<text  x="697.32" y="305.5" ></text>
</g>
<g >
<title>firedrake.pointquery_utils.to_reference_coordinates (956,735 us, 0.03%)</title><rect x="694.0" y="311" width="0.3" height="15.0" fill="rgb(0,0,0)" rx="2" ry="2" />
<text  x="697.03" y="321.5" ></text>
</g>
<g >
<title>ParLoopExecute (1,210,338 us, 0.03%)</title><rect x="691.4" y="247" width="0.4" height="15.0" fill="rgb(0,0,0)" rx="2" ry="2" />
<text  x="694.44" y="257.5" ></text>
</g>
<g >
<title>firedrake.tsfc_interface.compile_form (6,803,436 us, 0.18%)</title><rect x="240.5" y="151" width="2.1" height="15.0" fill="rgb(0,0,0)" rx="2" ry="2" />
<text  x="243.52" y="161.5" ></text>
</g>
<g >
<title>PCSetUp (663,660 us, 0.02%)</title><rect x="1178.0" y="199" width="0.2" height="15.0" fill="rgb(0,0,0)" rx="2" ry="2" />
<text  x="1180.99" y="209.5" ></text>
</g>
<g >
<title>pyop2.global_kernel.GlobalKernel.compile (662,345 us, 0.02%)</title><rect x="19.1" y="151" width="0.2" height="15.0" fill="rgb(0,0,0)" rx="2" ry="2" />
<text  x="22.07" y="161.5" ></text>
</g>
<g >
<title>Parloop_IntFacets_wrap_form00_interior_facet_vert_integral_otherwise (2,163,080 us, 0.06%)</title><rect x="36.8" y="135" width="0.6" height="15.0" fill="rgb(0,0,0)" rx="2" ry="2" />
<text  x="39.77" y="145.5" ></text>
</g>
<g >
<title>firedrake.mg.interface.restrict (1,843,310 us, 0.05%)</title><rect x="694.3" y="263" width="0.6" height="15.0" fill="rgb(0,0,0)" rx="2" ry="2" />
<text  x="697.32" y="273.5" ></text>
</g>
<g >
<title>pyop2.global_kernel.GlobalKernel.compile (3,360,317 us, 0.09%)</title><rect x="693.0" y="375" width="1.0" height="15.0" fill="rgb(0,0,0)" rx="2" ry="2" />
<text  x="695.98" y="385.5" ></text>
</g>
<g >
<title>firedrake.assemble.assemble (20,659,357 us, 0.55%)</title><rect x="31.7" y="103" width="6.5" height="15.0" fill="rgb(0,0,0)" rx="2" ry="2" />
<text  x="34.70" y="113.5" ></text>
</g>
<g >
<title>ParLoopExecute (895,348 us, 0.02%)</title><rect x="694.3" y="279" width="0.3" height="15.0" fill="rgb(0,0,0)" rx="2" ry="2" />
<text  x="697.32" y="289.5" ></text>
</g>
<g >
<title>firedrake.tsfc_interface.compile_form (2,274,139 us, 0.06%)</title><rect x="37.4" y="119" width="0.8" height="15.0" fill="rgb(0,0,0)" rx="2" ry="2" />
<text  x="40.45" y="129.5" ></text>
</g>
<g >
<title>firedrake.assemble_expressions.evaluate_expression (1,252,643 us, 0.03%)</title><rect x="18.9" y="103" width="0.4" height="15.0" fill="rgb(0,0,0)" rx="2" ry="2" />
<text  x="21.89" y="113.5" ></text>
</g>
<g >
<title>pyop2.global_kernel.GlobalKernel.compile (15,185,016 us, 0.40%)</title><rect x="19.8" y="135" width="4.8" height="15.0" fill="rgb(0,0,0)" rx="2" ry="2" />
<text  x="22.85" y="145.5" ></text>
</g>
<g >
<title>PCApply (11,089,595 us, 0.29%)</title><rect x="691.4" y="183" width="3.5" height="15.0" fill="rgb(0,0,0)" rx="2" ry="2" />
<text  x="694.44" y="193.5" ></text>
</g>
<g >
<title>Parloop_Cells_wrap_form_exterior_facet_top_integral_otherwise (3,663,406 us, 0.10%)</title><rect x="13.1" y="103" width="1.1" height="15.0" fill="rgb(0,0,0)" rx="2" ry="2" />
<text  x="16.10" y="113.5" ></text>
</g>
<g >
<title>Parloop_Cells_wrap_form00_exterior_facet_top_integral_otherwise (1,618,832 us, 0.04%)</title><rect x="35.1" y="135" width="0.5" height="15.0" fill="rgb(0,0,0)" rx="2" ry="2" />
<text  x="38.07" y="145.5" ></text>
</g>
<g >
<title>pyop2.global_kernel.GlobalKernel.compile (3,529,573 us, 0.09%)</title><rect x="24.6" y="135" width="1.1" height="15.0" fill="rgb(0,0,0)" rx="2" ry="2" />
<text  x="27.59" y="145.5" ></text>
</g>
<g >
<title>pyop2.global_kernel.GlobalKernel.compile (5,469,643 us, 0.14%)</title><rect x="15.3" y="119" width="1.8" height="15.0" fill="rgb(0,0,0)" rx="2" ry="2" />
<text  x="18.35" y="129.5" ></text>
</g>
</g>
</svg>
